subject02_running_RRA_states
nRows=8
nColumns=38

# SIMM Motion File Header:
name subject02_running_RRA_states
datacolumns 38
datarows 8
otherdata 1
range 1.14599999999998410000 1.14949999999998380000
endheader
time	pelvis_tx	pelvis_ty	pelvis_tz	pelvis_tilt	pelvis_list	pelvis_rotation	hip_flexion_r	hip_adduction_r	hip_rotation_r	knee_angle_r	ankle_angle_r	subtalar_angle_r	mtp_angle_r	hip_flexion_l	hip_adduction_l	hip_rotation_l	knee_angle_l	ankle_angle_l	subtalar_angle_l	mtp_angle_l	lumbar_extension	lumbar_bending	lumbar_rotation	arm_flex_r	arm_add_r	arm_rot_r	elbow_flex_r	pro_sup_r	wrist_flex_r	wrist_dev_r	arm_flex_l	arm_add_l	arm_rot_l	elbow_flex_l	pro_sup_l	wrist_flex_l	wrist_dev_l	
      1.14599999999998410000	      0.84626198607706637000	      0.95523319426268349000	     -0.19384017946848503000	      2.67217322558895760000	     -6.32241907359811250000	     -3.16339749008098360000	     25.61059010173371300000	     12.40534983627540700000	      0.33149307320507831000	    -32.99151369729582200000	     10.46032178600562700000	     -0.00000000000000394179	      0.00000000000002415732	    -16.28307331520387900000	    -10.63316652123276600000	    -11.27753711219524900000	    -68.61260007409833900000	    -23.29233280994304100000	     -0.00000000000022107992	     -0.00000000000008633299	     -9.21333608984170740000	      5.77649608505127790000	    -11.05745720101724800000	    -37.45794042601484400000	    -33.62307409217932300000	      9.33213246909098440000	     61.97288716982381400000	    103.92555299901500000000	     -0.00000000000002510376	     -0.00000000000003058394	     -6.09953283934005070000	    -21.51566050607017300000	     11.13351338750140900000	     87.40446292188950400000	    114.39404417662715000000	     -0.00000000000000171986	     -0.00000000000003014667	     	   
      1.14649999999998410000	      0.84613116738502292000	      0.95486933173265121000	     -0.19387433608790000000	      2.66963784659252080000	     -6.36236236380583800000	     -3.15724415561007770000	     25.62927467180577100000	     12.45555468797638100000	      0.31223251517657069000	    -33.20753787115015100000	     10.55892764365909600000	     -0.00000000000000392986	      0.00000000000002431090	    -16.12422051587675000000	    -10.70433192933872500000	    -11.23087637890219700000	    -68.89758129393824500000	    -23.20967373959236100000	     -0.00000000000022150787	     -0.00000000000008667168	     -9.23051876922167480000	      5.82960322936178340000	    -11.03086520318199200000	    -37.36146025392351100000	    -33.65940427511981200000	      9.35194528357639850000	     61.99638255601934800000	    103.94342471188779000000	     -0.00000000000002514823	     -0.00000000000003062425	     -6.11217000285292040000	    -21.48186457911601400000	     11.16290426341531900000	     87.25064094406364700000	    114.39945584132488000000	     -0.00000000000000173513	     -0.00000000000003024181	     	   
      1.14699999999998400000	      0.84600049644693798000	      0.95450650892309385000	     -0.19390853964174753000	      2.66705325283962400000	     -6.40229797425245550000	     -3.15100865710128450000	     25.64736203651787200000	     12.50578492694348200000	      0.29299833229995459000	    -33.42314628111596900000	     10.65799881965644000000	     -0.00000000000000392275	      0.00000000000002446500	    -15.96483817650010600000	    -10.77525732782847000000	    -11.18356373403155000000	    -69.18142445141303700000	    -23.12693236801751700000	     -0.00000000000022193508	     -0.00000000000008701080	     -9.24747901498354350000	      5.88269145711982410000	    -11.00404537822729800000	    -37.26474709924672600000	    -33.69562163345121100000	      9.37157235206962900000	     62.02015684989464700000	    103.96136689547322000000	     -0.00000000000002519264	     -0.00000000000003066422	     -6.12503526604441540000	    -21.44805375876072200000	     11.19227509251099800000	     87.09698033817703300000	    114.40467697011074000000	     -0.00000000000000175106	     -0.00000000000003033652	     	   
      1.14749999999998400000	      0.84586997770944272000	      0.95414475921165731000	     -0.19394278663611017000	      2.66441971025749200000	     -6.44222003727719980000	     -3.14469346606758290000	     25.66483766122076600000	     12.55603420922884800000	      0.27380071172162490000	    -33.63830602657019900000	     10.75751303661258800000	     -0.00000000000000391855	      0.00000000000002460988	    -15.80492775745514700000	    -10.84593337782998100000	    -11.13560759974038400000	    -69.46412067332801100000	    -23.04411063859031100000	     -0.00000000000022236137	     -0.00000000000008735109	     -9.26421618419568740000	      5.93575338060738120000	    -10.97699584588420100000	    -37.16780934108705700000	    -33.73172341799273300000	      9.39100852129326920000	     62.04421433480021600000	    103.97937899808399000000	     -0.00000000000002523788	     -0.00000000000003070194	     -6.13813223077565870000	    -21.41423167814052800000	     11.22162500848552100000	     86.94349568459652700000	    114.40970522198948000000	     -0.00000000000000176738	     -0.00000000000003042997	     	   
      1.14799999999998390000	      0.84573961491011507000	      0.95378411491001747000	     -0.19397707393630742000	      2.66173756442704380000	     -6.48212270624217710000	     -3.13830079581639110000	     25.68168642360730700000	     12.60629634740361200000	      0.25465016805731644000	    -33.85298336499748500000	     10.85747059676225500000	     -0.00000000000000391482	      0.00000000000002474342	    -15.64449087459209400000	    -10.91635094675125500000	    -11.08701639494463500000	    -69.74566142745600000000	    -22.96121038363127600000	     -0.00000000000022278733	     -0.00000000000008769313	     -9.28073007004364570000	      5.98878165226005250000	    -10.94971490716724300000	    -37.07065532676881500000	    -33.76770694986346700000	      9.41024872323236390000	     62.06855932982880800000	    103.99746047143749000000	     -0.00000000000002528321	     -0.00000000000003073885	     -6.15146446593653180000	    -21.38040204386565800000	     11.25095310715600600000	     86.79020150327689000000	    114.41453830824858000000	     -0.00000000000000178325	     -0.00000000000003052292	     	   
      1.14849999999998390000	      0.84560941114510013000	      0.95342460759784209000	     -0.19401139856041746000	      2.65900703718584670000	     -6.52200004351500870000	     -3.13183302798194330000	     25.69789373949099000000	     12.65656492294145100000	      0.23555683820442846000	    -34.06714579823783900000	     10.95784947438933400000	     -0.00000000000000391564	      0.00000000000002488725	    -15.48352910787024700000	    -10.98650074688591800000	    -11.03779870309181100000	    -70.02603834648650100000	    -22.87823331486464800000	     -0.00000000000022321321	     -0.00000000000008803550	     -9.29702055600425580000	      6.04176884673220820000	    -10.92220069109042200000	    -36.97329341088861600000	    -33.80356962077031800000	      9.42928786237015260000	     62.09319617723827600000	    104.01561078866403000000	     -0.00000000000002532829	     -0.00000000000003077413	     -6.16503551799246100000	    -21.34656855219460400000	     11.28025846550201500000	     86.63711228505599100000	    114.41917398687400000000	     -0.00000000000000179842	     -0.00000000000003061456	     	   
      1.14899999999998380000	      0.84547936874482787000	      0.95306626774083725000	     -0.19404575786742853000	      2.65622840718052220000	     -6.56184613764887730000	     -3.12529231775189450000	     25.71344453623159500000	     12.70683369809951600000	      0.21653123997170390000	    -34.28076012315278100000	     11.05864876516903700000	     -0.00000000000000390832	      0.00000000000002502689	    -15.32204417071662300000	    -11.05637370432522100000	    -10.98796312781321500000	    -70.30524340219474800000	    -22.79518103599528800000	     -0.00000000000022363865	     -0.00000000000008837706	     -9.31308793941024680000	      6.09470759035125200000	    -10.89445147439681900000	    -36.87573189720121300000	    -33.83930889900009500000	      9.44812093224027370000	     62.11812924569181900000	    104.03382942495303000000	     -0.00000000000002537266	     -0.00000000000003080754	     -6.17884889666785230000	    -21.31273496146432600000	     11.30954012248689000000	     86.48424245158472000000	    114.42361007304561000000	     -0.00000000000000181309	     -0.00000000000003070612	     	   
      1.14949999999998380000	      0.84534948944969435000	      0.95270912506958139000	     -0.19408014941165466000	      2.65340185517728380000	     -6.60165498084561180000	     -3.11868094912495590000	     25.72832418380648500000	     12.75709620081012100000	      0.19758344156016974000	    -34.49379424592083200000	     11.15984689606877100000	     -0.00000000000000388940	      0.00000000000002513204	    -15.16003776587676700000	    -11.12596059816647600000	    -10.93751840123174000000	    -70.58326872531860400000	    -22.71205502671124400000	     -0.00000000000022406379	     -0.00000000000008871995	     -9.32893262395552010000	      6.14759043007152610000	    -10.86646539612226500000	    -36.77797909917365600000	    -33.87492232189428200000	      9.46674289579983430000	     62.14336293390290000000	    104.05211587917746000000	     -0.00000000000002541657	     -0.00000000000003084166	     -6.19290809283840100000	    -21.27890502541922400000	     11.33879709919304800000	     86.33160640175692900000	    114.42784442503833000000	     -0.00000000000000182875	     -0.00000000000003079937	     	   
